# xmcd
#
# Track frame offsets:
#	150
#	18839
#	35681
#	52995
#	65807
#	85607
#	103485
#	116330
#	131853
#	148399
#	163274
#	181758
#	195279
#	212779
#	226335
#	243286
#	258155
#
# Disc length: 3655 seconds
#
# Revision: 2
# Processed by: cddbd v1.5.2PL0 Copyright (c) Steve Scherf et al.
# Submitted via: EasyCDDAExtractor 11.1.0.1
#
DISCID=f00e4511
DTITLE=Trisha Yearwood - Greatest Hits
DYEAR=2007
DGENRE=Country
TTITLE0=She's In Love With The Boy
TTITLE1=Like We Never Had A Broken Heart
TTITLE2=The Woman Before Me
TTITLE3=Wrong Side Of Memphis
TTITLE4=Walkaway Joe
TTITLE5=The Song Remembers When
TTITLE6=XXX's And OOO's (An American Girl)
TTITLE7=Thinkin' About You
TTITLE8=Believe Me Baby (I Lied)
TTITLE9=Everybody Knows
TTITLE10=How Do I Live
TTITLE11=A Perfect Love
TTITLE12=There Goes My Baby
TTITLE13=Powerful Thing
TTITLE14=I Would've Loved You Anyway
TTITLE15=Just A Cup Of Coffee
TTITLE16=Nothin' To Lose
EXTD=
EXTT0=
EXTT1=
EXTT2=
EXTT3=
EXTT4=
EXTT5=
EXTT6=
EXTT7=
EXTT8=
EXTT9=
EXTT10=
EXTT11=
EXTT12=
EXTT13=
EXTT14=
EXTT15=
EXTT16=
PLAYORDER=
